<?xml version="1.0" encoding="UTF-8" standalone="no"?>
<!-- Created with Inkscape (http://www.inkscape.org/) -->

<svg
   xmlns:dc="http://purl.org/dc/elements/1.1/"
   xmlns:cc="http://creativecommons.org/ns#"
   xmlns:rdf="http://www.w3.org/1999/02/22-rdf-syntax-ns#"
   xmlns:svg="http://www.w3.org/2000/svg"
   xmlns="http://www.w3.org/2000/svg"
   xmlns:sodipodi="http://sodipodi.sourceforge.net/DTD/sodipodi-0.dtd"
   xmlns:inkscape="http://www.inkscape.org/namespaces/inkscape"
   width="1062.9921"
   height="1062.9921"
   id="svg2"
   version="1.1"
   inkscape:version="0.48.0 r9654"
   sodipodi:docname="hellonigga.gcode">
  <defs
     id="defs4" />
  <sodipodi:namedview
     id="base"
     pagecolor="#ffffff"
     bordercolor="#666666"
     borderopacity="1.0"
     inkscape:pageopacity="0.0"
     inkscape:pageshadow="2"
     inkscape:zoom="0.35"
     inkscape:cx="375"
     inkscape:cy="520"
     inkscape:document-units="mm"
     inkscape:current-layer="layer1"
     showgrid="false"
     units="mm"
     inkscape:window-width="1600"
     inkscape:window-height="847"
     inkscape:window-x="1592"
     inkscape:window-y="-8"
     inkscape:window-maximized="1" />
  <metadata
     id="metadata7">
    <rdf:RDF>
      <cc:Work
         rdf:about="">
        <dc:format>image/svg+xml</dc:format>
        <dc:type
           rdf:resource="http://purl.org/dc/dcmitype/StillImage" />
        <dc:title></dc:title>
      </cc:Work>
    </rdf:RDF>
  </metadata>
  <g
     inkscape:label="Layer 1"
     inkscape:groupmode="layer"
     id="layer1"
     transform="translate(0,10.629915)">
    <g
       style="font-size:199.97412109px;font-style:normal;font-weight:normal;line-height:125%;letter-spacing:0px;word-spacing:0px;fill:#000000;fill-opacity:1;stroke:none;font-family:Sans"
       id="text2985"
       transform="matrix(0.56386615,0,0,0.77263029,485.27324,-162.35934)">
      <path
         d="m 104.89074,443.284 0,-198.81324 26.30953,0 0,81.64091 103.33948,0 0,-81.64091 26.30953,0 0,198.81324 -26.30953,0 0,-93.71074 -103.33948,0 0,93.71074 z"
         style="font-size:277.74182129px"
         id="path2992"
         inkscape:connector-curvature="0" />
      <path
         d="m 305.33138,443.284 0,-198.81324 143.75309,0 0,23.46159 -117.44357,0 0,60.89164 109.98468,0 0,23.32597 -109.98468,0 0,67.67245 122.05452,0 0,23.46159 z"
         style="font-size:277.74182129px"
         id="path2994"
         inkscape:connector-curvature="0" />
      <path
         d="m 489.22686,443.284 0,-198.81324 26.30952,0 0,175.35165 97.91485,0 0,23.46159 z"
         style="font-size:277.74182129px"
         id="path2996"
         inkscape:connector-curvature="0" />
      <path
         d="m 643.82921,443.284 0,-198.81324 26.30953,0 0,175.35165 97.91484,0 0,23.46159 z"
         style="font-size:277.74182129px"
         id="path2998"
         inkscape:connector-curvature="0" />
      <path
         d="m 791.51521,346.45408 c -2e-5,-32.99979 8.86023,-58.83464 26.58076,-77.50461 17.72045,-18.66963 40.59434,-28.00453 68.62176,-28.00473 18.35325,2e-4 34.8984,4.38512 49.6355,13.15476 14.73678,8.77003 25.9703,20.99807 33.7006,36.68417 7.72992,15.6864 11.59498,33.47469 11.59518,53.36494 -2e-4,20.16168 -4.06868,38.1986 -12.20545,54.11083 -8.13715,15.91232 -19.66451,27.95954 -34.58211,36.1417 -14.91792,8.18217 -31.01101,12.27326 -48.27934,12.27326 -18.71512,0 -35.44109,-4.52054 -50.17797,-13.56161 -14.73699,-9.04106 -25.90271,-21.38211 -33.49718,-37.0232 -7.59452,-15.641 -11.39177,-32.18615 -11.39175,-49.63551 z m 27.12322,0.40685 c -4e-5,23.95892 6.44172,42.83215 19.3253,56.61973 12.88346,13.78767 29.04436,20.68148 48.48276,20.68146 19.79983,2e-5 36.09635,-6.9616 48.88962,-20.88488 12.79295,-13.9232 19.1895,-33.67793 19.18968,-59.26425 -1.8e-4,-16.1834 -2.7351,-30.31007 -8.20478,-42.38003 -5.47001,-12.06969 -13.47135,-21.42719 -24.00405,-28.07254 -10.53299,-6.64502 -22.35418,-9.96761 -35.46362,-9.96779 -18.6247,1.8e-4 -34.64999,6.39674 -48.07591,19.18968 -13.42605,12.79327 -20.13904,34.15279 -20.139,64.07862 z"
         style="font-size:277.74182129px"
         id="path3000"
         inkscape:connector-curvature="0" />
      <path
         d="m 103.80581,790.46127 0,-198.81323 26.98761,0 104.42442,156.09415 0,-156.09415 25.22459,0 0,198.81323 -26.9876,0 -104.42442,-156.22977 0,156.22977 z"
         style="font-size:277.74182129px"
         id="path3002"
         inkscape:connector-curvature="0" />
      <path
         d="m 309.26424,790.46127 0,-198.81323 26.30953,0 0,198.81323 z"
         style="font-size:277.74182129px"
         id="path3004"
         inkscape:connector-curvature="0" />
      <path
         d="m 474.85153,712.482 0,-23.32597 84.21761,-0.13562 0,73.77517 c -12.92892,10.30685 -26.2645,18.05956 -40.00676,23.25817 -13.74258,5.19862 -27.84664,7.79792 -42.31223,7.79793 -19.52882,-10e-6 -37.27191,-4.1815 -53.22933,-12.5445 -15.95754,-8.36297 -28.00476,-20.4554 -36.14169,-36.27731 -8.13699,-15.82182 -12.20547,-33.4971 -12.20545,-53.0259 -2e-5,-19.34779 4.04586,-37.40731 12.13764,-54.17864 8.09173,-16.77103 19.7321,-29.2251 34.92115,-37.36225 15.18893,-8.13677 32.68339,-12.20525 52.48344,-12.20545 14.37518,2e-4 27.37171,2.32828 38.98964,6.98423 11.61761,4.65635 20.72649,11.14331 27.32664,19.46092 6.5998,8.31795 11.61759,19.16723 15.05339,32.54787 l -23.73282,6.50957 c -2.98372,-10.12586 -6.69056,-18.08199 -11.12052,-23.86844 -4.43028,-5.78612 -10.75903,-10.41967 -18.98626,-13.90065 -8.22751,-3.48064 -17.35899,-5.22104 -27.39445,-5.22122 -12.02474,1.8e-4 -22.42196,1.83099 -31.19171,5.49245 -8.76992,3.66181 -15.84455,8.47618 -21.22393,14.44312 -5.37949,5.96726 -9.56098,12.52204 -12.54449,19.66434 -5.06304,12.29599 -7.59454,25.63156 -7.5945,40.00675 -4e-5,17.72059 3.05132,32.54794 9.15409,44.48209 6.10267,11.93427 14.98551,20.79451 26.64857,26.58076 11.66289,5.78631 24.04915,8.67945 37.15881,8.67943 11.39163,2e-5 22.51214,-2.19243 33.36157,-6.57738 10.84913,-4.38489 19.0765,-9.06364 24.68214,-14.03627 l 0,-37.0232 z"
         style="font-size:277.74182129px"
         id="path3006"
         inkscape:connector-curvature="0" />
      <path
         d="m 690.7524,712.482 0,-23.32597 84.21762,-0.13562 0,73.77517 c -12.92893,10.30685 -26.2645,18.05956 -40.00676,23.25817 -13.74258,5.19862 -27.84664,7.79792 -42.31223,7.79793 -19.52882,-10e-6 -37.27191,-4.1815 -53.22933,-12.5445 -15.95754,-8.36297 -28.00476,-20.4554 -36.14169,-36.27731 -8.13699,-15.82182 -12.20547,-33.4971 -12.20546,-53.0259 -1e-5,-19.34779 4.04587,-37.40731 12.13765,-54.17864 8.09172,-16.77103 19.7321,-29.2251 34.92115,-37.36225 15.18893,-8.13677 32.68339,-12.20525 52.48344,-12.20545 14.37518,2e-4 27.37171,2.32828 38.98963,6.98423 11.61762,4.65635 20.72649,11.14331 27.32665,19.46092 6.5998,8.31795 11.61759,19.16723 15.05339,32.54787 l -23.73282,6.50957 c -2.98372,-10.12586 -6.69056,-18.08199 -11.12052,-23.86844 -4.43028,-5.78612 -10.75903,-10.41967 -18.98626,-13.90065 -8.22751,-3.48064 -17.35899,-5.22104 -27.39446,-5.22122 -12.02473,1.8e-4 -22.42195,1.83099 -31.1917,5.49245 -8.76992,3.66181 -15.84455,8.47618 -21.22393,14.44312 -5.37949,5.96726 -9.56099,12.52204 -12.54449,19.66434 -5.06304,12.29599 -7.59454,25.63156 -7.5945,40.00675 -4e-5,17.72059 3.05132,32.54794 9.15409,44.48209 6.10267,11.93427 14.98551,20.79451 26.64857,26.58076 11.66289,5.78631 24.04915,8.67945 37.15881,8.67943 11.39163,2e-5 22.51214,-2.19243 33.36157,-6.57738 10.84913,-4.38489 19.0765,-9.06364 24.68213,-14.03627 l 0,-37.0232 z"
         style="font-size:277.74182129px"
         id="path3008"
         inkscape:connector-curvature="0" />
      <path
         d="m 791.78643,790.46127 76.35187,-198.81323 28.34377,0 81.36968,198.81323 -29.97116,0 -23.19036,-60.21356 -83.13269,0 -21.83419,60.21356 z m 57.36562,-81.6409 67.40121,0 -20.74927,-55.06015 c -6.32885,-16.72583 -11.0302,-30.46825 -14.10407,-41.2273 -2.53159,12.74808 -6.10281,25.40557 -10.71368,37.97251 z"
         style="font-size:277.74182129px"
         id="path3010"
         inkscape:connector-curvature="0" />
    </g>
  </g>
</svg>
